<svg width="51" height="58" viewBox="0 0 51 58" fill="none" xmlns="http://www.w3.org/2000/svg">
<path d="M13.971 25.702L19.983 17.287C17.484 16.872 12.895 16.78 9.137 20.522C3.212 26.421 0.811996 39.163 0.311996 42.248L15.37 57.24C18.081 57.008 30.083 55.413 41.649 43.9C41.771 43.651 44.589 41.579 42.285 39.286C41.185 38.191 39.366 38.212 38.243 39.33C37.671 39.9 36.782 39.907 36.222 39.35C35.662 38.793 35.67 37.907 36.242 37.338L40.329 33.269C42.405 31.202 40.448 27.714 37.549 28.552L34.204 31.403C33.593 31.933 32.684 31.842 32.182 31.263C31.663 30.666 31.774 29.76 32.365 29.25C44.052 19.042 42.345 20.271 49.865 13.255C52.674 10.926 49.14 6.808 46.372 9.165L28.182 25.45C27.653 25.898 26.842 25.907 26.322 25.43C25.721 24.913 25.707 24.168 26.1 23.58L38.787 3.944C40.641 1.444 36.992 -1.333 35.038 1.187L16.28 27.307C15.828 27.957 14.916 28.107 14.295 27.652C14.1435 27.547 14.0146 27.4126 13.916 27.2569C13.8174 27.1011 13.7511 26.9272 13.721 26.7453C13.6909 26.5635 13.6976 26.3774 13.7407 26.1982C13.7838 26.019 13.8625 25.8503 13.972 25.702H13.971Z" fill="white"/>
</svg>
