<svg width="48" height="48" viewBox="0 0 48 48" fill="none" xmlns="http://www.w3.org/2000/svg">
<path d="M45.06 12.22C44.418 4.124 35.326 4.951 35.326 4.951C31.489 -1.814 25.494 3.086 25.494 3.086C20.888 -3.544 15.114 2.6 15.114 2.6C5.157 1.526 5.543 9.666 5.543 9.666C5.309 12.254 6.946 20.259 6.946 20.259C5.469 15.645 2.266 19.475 2.266 19.475C-1.674 25.553 1.291 28.88 1.291 28.88C6.621 35.126 17.979 42.623 17.979 42.623C22.092 44.979 20.352 47.08 20.352 47.08L45.228 42.97L45.799 38.252C49.581 26.816 45.06 12.22 45.06 12.22V12.22Z" fill="white"/>
</svg>
