<svg width="49" height="59" viewBox="0 0 49 59" fill="none" xmlns="http://www.w3.org/2000/svg">
<path d="M47.125 11.832C46.7334 11.6781 46.3131 11.6105 45.893 11.634C45.323 11.674 44.864 11.905 44.591 12.284C42.987 14.532 41.672 18.777 40.612 22.189C40.126 23.766 39.472 25.877 39 26.879C38.507 24.072 39.064 13.789 39.28 9.829L39.283 9.765C39.433 7.014 39.453 6.531 39.421 6.319C39.183 4.81 38.578 3.819 37.622 3.376C36.656 2.926 35.402 3.126 34.05 3.939C33.373 4.349 33.185 5.755 32.604 12.129L32.602 12.157C32.282 15.659 31.544 23.723 30.637 25.067C29.614 23.187 28.206 12.512 27.598 7.891C27.173 4.655 26.925 2.797 26.758 2.236C26.408 1.06 24.928 0.0600004 23.463 0.00400035C22.243 -0.0559996 21.243 0.564 20.765 1.642C19.871 2.637 20.187 5.934 21.175 13.744C21.645 17.462 22.615 25.139 22.005 26.001C20.786 25.868 18.695 21.059 15.79 11.702C14.974 9.082 14.722 8.294 14.472 7.949C13.978 6.747 12.3 5.82 10.796 5.925C10.6695 5.93381 10.5436 5.95017 10.419 5.974C9.63199 6.13 7.835 6.855 8.219 10.2C9.279 14.837 10.432 18.241 11.55 21.546L11.573 21.612C12.242 23.592 12.875 25.462 13.463 27.537C14.848 32.437 14.309 35.477 14.303 35.512C14.257 35.824 14.16 36.015 14.015 36.082C13.9533 36.1087 13.8872 36.1239 13.82 36.127C13.38 36.157 12.722 35.867 12.383 35.677C11.607 34.195 7.747 27.133 4.249 26.153L4.123 26.116L3.996 26.128C2.713 26.249 1.77 26.734 1.193 27.569C0.278996 28.889 0.657996 30.571 0.748996 30.909L0.800996 31.029C0.828996 31.08 3.635 36.194 4.069 38.573C4.443 40.613 6.38 42.823 7.938 44.599L8.002 44.672C8.51 45.252 8.94799 45.755 9.29399 46.22C13.813 50.933 20.959 54.897 21.017 54.93C21.909 55.587 22.404 56.223 22.457 56.77C22.4814 56.9768 22.424 57.1849 22.297 57.35L22.142 57.512L23.13 58.472L41.983 57.148L42.787 53.464C45.273 43.062 44.754 34.192 44.745 34.134C44.755 33.807 45.451 30.651 46.011 28.101L46.028 28.036C47.145 22.956 48.533 16.636 48.8 14.233C48.916 13.205 48.258 12.261 47.125 11.832V11.832Z" fill="white"/>
</svg>
